<?xml version="1.0" encoding="UTF-8" standalone="no"?>
<!DOCTYPE svg PUBLIC "-//W3C//DTD SVG 1.1//EN"
 "http://www.w3.org/Graphics/SVG/1.1/DTD/svg11.dtd">
<!-- Generated by graphviz version 2.43.0 (0)
 -->
<!-- Title: include/undoCore/undoCore.hpp Pages: 1 -->
<svg width="605pt" height="137pt"
 viewBox="0.00 0.00 604.50 137.00" xmlns="http://www.w3.org/2000/svg" xmlns:xlink="http://www.w3.org/1999/xlink">
<g id="graph0" class="graph" transform="scale(1 1) rotate(0) translate(4 133)">
<title>include/undoCore/undoCore.hpp</title>
<!-- Node1 -->
<g id="Node000001" class="node">
<title>Node1</title>
<g id="a_Node000001"><a xlink:title=" ">
<polygon fill="#999999" stroke="#666666" points="296,-129 124,-129 124,-110 296,-110 296,-129"/>
<text text-anchor="middle" x="210" y="-117" font-family="Helvetica,sans-Serif" font-size="10.00">include/undoCore/undoCore.hpp</text>
</a>
</g>
</g>
<!-- Node2 -->
<g id="Node000002" class="node">
<title>Node2</title>
<g id="a_Node000002"><a xlink:href="types_8hpp.html" target="_top" xlink:title="Support library for basic types.">
<polygon fill="white" stroke="#666666" points="420,-74 306,-74 306,-55 420,-55 420,-74"/>
<text text-anchor="middle" x="363" y="-62" font-family="Helvetica,sans-Serif" font-size="10.00">undoCore/types.hpp</text>
</a>
</g>
</g>
<!-- Node1&#45;&gt;Node2 -->
<g id="edge1_Node000001_Node000002" class="edge">
<title>Node1&#45;&gt;Node2</title>
<g id="a_edge1_Node000001_Node000002"><a xlink:title=" ">
<path fill="none" stroke="#63b8ff" d="M234.58,-109.98C260.05,-101.16 300.04,-87.31 328.63,-77.41"/>
<polygon fill="#63b8ff" stroke="#63b8ff" points="329.92,-80.66 338.23,-74.08 327.63,-74.05 329.92,-80.66"/>
</a>
</g>
</g>
<!-- Node10 -->
<g id="Node000010" class="node">
<title>Node10</title>
<g id="a_Node000010"><a xlink:href="processImage_8hpp.html" target="_top" xlink:title="Process Image for IEC 61131&#45;3 PLC execution.">
<polygon fill="white" stroke="#666666" points="287.5,-74 132.5,-74 132.5,-55 287.5,-55 287.5,-74"/>
<text text-anchor="middle" x="210" y="-62" font-family="Helvetica,sans-Serif" font-size="10.00">undoCore/processImage.hpp</text>
</a>
</g>
</g>
<!-- Node1&#45;&gt;Node10 -->
<g id="edge9_Node000001_Node000010" class="edge">
<title>Node1&#45;&gt;Node10</title>
<g id="a_edge9_Node000001_Node000010"><a xlink:title=" ">
<path fill="none" stroke="#63b8ff" d="M210,-109.75C210,-102.8 210,-92.85 210,-84.13"/>
<polygon fill="#63b8ff" stroke="#63b8ff" points="213.5,-84.09 210,-74.09 206.5,-84.09 213.5,-84.09"/>
</a>
</g>
</g>
<!-- Node11 -->
<g id="Node000011" class="node">
<title>Node11</title>
<g id="a_Node000011"><a xlink:href="ioBus_8hpp.html" target="_top" xlink:title="Abstract interface for fieldbus masters in the undoRT ecosystem.">
<polygon fill="white" stroke="#666666" points="114,-74 0,-74 0,-55 114,-55 114,-74"/>
<text text-anchor="middle" x="57" y="-62" font-family="Helvetica,sans-Serif" font-size="10.00">undoCore/ioBus.hpp</text>
</a>
</g>
</g>
<!-- Node1&#45;&gt;Node11 -->
<g id="edge14_Node000001_Node000011" class="edge">
<title>Node1&#45;&gt;Node11</title>
<g id="a_edge14_Node000001_Node000011"><a xlink:title=" ">
<path fill="none" stroke="#63b8ff" d="M185.42,-109.98C159.95,-101.16 119.96,-87.31 91.37,-77.41"/>
<polygon fill="#63b8ff" stroke="#63b8ff" points="92.37,-74.05 81.77,-74.08 90.08,-80.66 92.37,-74.05"/>
</a>
</g>
</g>
<!-- Node3 -->
<g id="Node000003" class="node">
<title>Node3</title>
<g id="a_Node000003"><a xlink:title=" ">
<polygon fill="#e0e0e0" stroke="#999999" points="139,-19 89,-19 89,0 139,0 139,-19"/>
<text text-anchor="middle" x="114" y="-7" font-family="Helvetica,sans-Serif" font-size="10.00">cstdint</text>
</a>
</g>
</g>
<!-- Node2&#45;&gt;Node3 -->
<g id="edge2_Node000002_Node000003" class="edge">
<title>Node2&#45;&gt;Node3</title>
<g id="a_edge2_Node000002_Node000003"><a xlink:title=" ">
<path fill="none" stroke="#63b8ff" d="M319.24,-54.99C277.84,-46.81 213.73,-33.84 149.17,-19.2"/>
<polygon fill="#63b8ff" stroke="#63b8ff" points="149.75,-15.74 139.22,-16.93 148.19,-22.56 149.75,-15.74"/>
</a>
</g>
</g>
<!-- Node4 -->
<g id="Node000004" class="node">
<title>Node4</title>
<g id="a_Node000004"><a xlink:title=" ">
<polygon fill="#e0e0e0" stroke="#999999" points="207,-19 157,-19 157,0 207,0 207,-19"/>
<text text-anchor="middle" x="182" y="-7" font-family="Helvetica,sans-Serif" font-size="10.00">cstring</text>
</a>
</g>
</g>
<!-- Node2&#45;&gt;Node4 -->
<g id="edge3_Node000002_Node000004" class="edge">
<title>Node2&#45;&gt;Node4</title>
<g id="a_edge3_Node000002_Node000004"><a xlink:title=" ">
<path fill="none" stroke="#63b8ff" d="M333.92,-54.98C302.13,-45.68 251.2,-30.76 217.19,-20.8"/>
<polygon fill="#63b8ff" stroke="#63b8ff" points="217.79,-17.33 207.21,-17.88 215.83,-24.05 217.79,-17.33"/>
</a>
</g>
</g>
<!-- Node5 -->
<g id="Node000005" class="node">
<title>Node5</title>
<g id="a_Node000005"><a xlink:title=" ">
<polygon fill="#e0e0e0" stroke="#999999" points="413,-19 369,-19 369,0 413,0 413,-19"/>
<text text-anchor="middle" x="391" y="-7" font-family="Helvetica,sans-Serif" font-size="10.00">string</text>
</a>
</g>
</g>
<!-- Node2&#45;&gt;Node5 -->
<g id="edge4_Node000002_Node000005" class="edge">
<title>Node2&#45;&gt;Node5</title>
<g id="a_edge4_Node000002_Node000005"><a xlink:title=" ">
<path fill="none" stroke="#63b8ff" d="M367.62,-54.75C371.46,-47.49 377.02,-36.95 381.76,-27.98"/>
<polygon fill="#63b8ff" stroke="#63b8ff" points="384.89,-29.57 386.46,-19.09 378.7,-26.3 384.89,-29.57"/>
</a>
</g>
</g>
<!-- Node6 -->
<g id="Node000006" class="node">
<title>Node6</title>
<g id="a_Node000006"><a xlink:title=" ">
<polygon fill="#e0e0e0" stroke="#999999" points="267,-19 225,-19 225,0 267,0 267,-19"/>
<text text-anchor="middle" x="246" y="-7" font-family="Helvetica,sans-Serif" font-size="10.00">array</text>
</a>
</g>
</g>
<!-- Node2&#45;&gt;Node6 -->
<g id="edge5_Node000002_Node000006" class="edge">
<title>Node2&#45;&gt;Node6</title>
<g id="a_edge5_Node000002_Node000006"><a xlink:title=" ">
<path fill="none" stroke="#63b8ff" d="M344.2,-54.98C325.38,-46.46 296.18,-33.23 274.5,-23.41"/>
<polygon fill="#63b8ff" stroke="#63b8ff" points="275.69,-20.11 265.14,-19.17 272.8,-26.48 275.69,-20.11"/>
</a>
</g>
</g>
<!-- Node7 -->
<g id="Node000007" class="node">
<title>Node7</title>
<g id="a_Node000007"><a xlink:title=" ">
<polygon fill="#e0e0e0" stroke="#999999" points="495,-19 431,-19 431,0 495,0 495,-19"/>
<text text-anchor="middle" x="463" y="-7" font-family="Helvetica,sans-Serif" font-size="10.00">algorithm</text>
</a>
</g>
</g>
<!-- Node2&#45;&gt;Node7 -->
<g id="edge6_Node000002_Node000007" class="edge">
<title>Node2&#45;&gt;Node7</title>
<g id="a_edge6_Node000002_Node000007"><a xlink:title=" ">
<path fill="none" stroke="#63b8ff" d="M379.07,-54.98C394.86,-46.61 419.22,-33.7 437.63,-23.95"/>
<polygon fill="#63b8ff" stroke="#63b8ff" points="439.44,-26.95 446.64,-19.17 436.17,-20.76 439.44,-26.95"/>
</a>
</g>
</g>
<!-- Node8 -->
<g id="Node000008" class="node">
<title>Node8</title>
<g id="a_Node000008"><a xlink:title=" ">
<polygon fill="#e0e0e0" stroke="#999999" points="596.5,-19 513.5,-19 513.5,0 596.5,0 596.5,-19"/>
<text text-anchor="middle" x="555" y="-7" font-family="Helvetica,sans-Serif" font-size="10.00">initializer_list</text>
</a>
</g>
</g>
<!-- Node2&#45;&gt;Node8 -->
<g id="edge7_Node000002_Node000008" class="edge">
<title>Node2&#45;&gt;Node8</title>
<g id="a_edge7_Node000002_Node000008"><a xlink:title=" ">
<path fill="none" stroke="#63b8ff" d="M393.85,-54.98C426.5,-45.97 478.2,-31.7 514.2,-21.76"/>
<polygon fill="#63b8ff" stroke="#63b8ff" points="515.2,-25.12 523.91,-19.08 513.34,-18.37 515.2,-25.12"/>
</a>
</g>
</g>
<!-- Node9 -->
<g id="Node000009" class="node">
<title>Node9</title>
<g id="a_Node000009"><a xlink:title=" ">
<polygon fill="#e0e0e0" stroke="#999999" points="350.5,-19 285.5,-19 285.5,0 350.5,0 350.5,-19"/>
<text text-anchor="middle" x="318" y="-7" font-family="Helvetica,sans-Serif" font-size="10.00">stdexcept</text>
</a>
</g>
</g>
<!-- Node2&#45;&gt;Node9 -->
<g id="edge8_Node000002_Node000009" class="edge">
<title>Node2&#45;&gt;Node9</title>
<g id="a_edge8_Node000002_Node000009"><a xlink:title=" ">
<path fill="none" stroke="#63b8ff" d="M355.57,-54.75C349.15,-47.18 339.69,-36.05 331.88,-26.84"/>
<polygon fill="#63b8ff" stroke="#63b8ff" points="334.43,-24.45 325.29,-19.09 329.1,-28.98 334.43,-24.45"/>
</a>
</g>
</g>
<!-- Node10&#45;&gt;Node3 -->
<g id="edge11_Node000010_Node000003" class="edge">
<title>Node10&#45;&gt;Node3</title>
<g id="a_edge11_Node000010_Node000003"><a xlink:title=" ">
<path fill="none" stroke="#63b8ff" d="M194.58,-54.98C179.55,-46.69 156.46,-33.94 138.84,-24.22"/>
<polygon fill="#63b8ff" stroke="#63b8ff" points="140.15,-20.94 129.7,-19.17 136.77,-27.07 140.15,-20.94"/>
</a>
</g>
</g>
<!-- Node10&#45;&gt;Node4 -->
<g id="edge12_Node000010_Node000004" class="edge">
<title>Node10&#45;&gt;Node4</title>
<g id="a_edge12_Node000010_Node000004"><a xlink:title=" ">
<path fill="none" stroke="#63b8ff" d="M205.38,-54.75C201.54,-47.49 195.98,-36.95 191.24,-27.98"/>
<polygon fill="#63b8ff" stroke="#63b8ff" points="194.3,-26.3 186.54,-19.09 188.11,-29.57 194.3,-26.3"/>
</a>
</g>
</g>
<!-- Node10&#45;&gt;Node6 -->
<g id="edge10_Node000010_Node000006" class="edge">
<title>Node10&#45;&gt;Node6</title>
<g id="a_edge10_Node000010_Node000006"><a xlink:title=" ">
<path fill="none" stroke="#63b8ff" d="M215.94,-54.75C220.98,-47.34 228.34,-36.5 234.51,-27.41"/>
<polygon fill="#63b8ff" stroke="#63b8ff" points="237.44,-29.33 240.17,-19.09 231.65,-25.39 237.44,-29.33"/>
</a>
</g>
</g>
<!-- Node10&#45;&gt;Node9 -->
<g id="edge13_Node000010_Node000009" class="edge">
<title>Node10&#45;&gt;Node9</title>
<g id="a_edge13_Node000010_Node000009"><a xlink:title=" ">
<path fill="none" stroke="#63b8ff" d="M227.35,-54.98C244.57,-46.54 271.2,-33.47 291.15,-23.68"/>
<polygon fill="#63b8ff" stroke="#63b8ff" points="292.9,-26.72 300.33,-19.17 289.81,-20.43 292.9,-26.72"/>
</a>
</g>
</g>
<!-- Node11&#45;&gt;Node3 -->
<g id="edge15_Node000011_Node000003" class="edge">
<title>Node11&#45;&gt;Node3</title>
<g id="a_edge15_Node000011_Node000003"><a xlink:title=" ">
<path fill="none" stroke="#63b8ff" d="M66.16,-54.98C74.5,-47.23 87.03,-35.58 97.18,-26.14"/>
<polygon fill="#63b8ff" stroke="#63b8ff" points="99.74,-28.54 104.68,-19.17 94.97,-23.42 99.74,-28.54"/>
</a>
</g>
</g>
</g>
</svg>
