<?xml version="1.0" encoding="UTF-8" standalone="no"?>
<!DOCTYPE svg PUBLIC "-//W3C//DTD SVG 1.1//EN"
 "http://www.w3.org/Graphics/SVG/1.1/DTD/svg11.dtd">
<!-- Generated by graphviz version 2.43.0 (0)
 -->
<!-- Title: include/undoCore/undoCore.hpp Pages: 1 -->
<svg width="610pt" height="137pt"
 viewBox="0.00 0.00 609.50 137.00" xmlns="http://www.w3.org/2000/svg" xmlns:xlink="http://www.w3.org/1999/xlink">
<g id="graph0" class="graph" transform="scale(1 1) rotate(0) translate(4 133)">
<title>include/undoCore/undoCore.hpp</title>
<!-- Node1 -->
<g id="Node000001" class="node">
<title>Node1</title>
<g id="a_Node000001"><a xlink:title=" ">
<polygon fill="#999999" stroke="#666666" points="400.5,-129 228.5,-129 228.5,-110 400.5,-110 400.5,-129"/>
<text text-anchor="middle" x="314.5" y="-117" font-family="Helvetica,sans-Serif" font-size="10.00">include/undoCore/undoCore.hpp</text>
</a>
</g>
</g>
<!-- Node2 -->
<g id="Node000002" class="node">
<title>Node2</title>
<g id="a_Node000002"><a xlink:href="undoCoreVer_8hpp.html" target="_top" xlink:title="Version information for undoCore.">
<polygon fill="white" stroke="#666666" points="149,-74 0,-74 0,-55 149,-55 149,-74"/>
<text text-anchor="middle" x="74.5" y="-62" font-family="Helvetica,sans-Serif" font-size="10.00">undoCore/undoCoreVer.hpp</text>
</a>
</g>
</g>
<!-- Node1&#45;&gt;Node2 -->
<g id="edge1_Node000001_Node000002" class="edge">
<title>Node1&#45;&gt;Node2</title>
<g id="a_edge1_Node000001_Node000002"><a xlink:title=" ">
<path fill="none" stroke="#63b8ff" d="M275.94,-109.98C234.43,-100.82 168.29,-86.21 123.21,-76.26"/>
<polygon fill="#63b8ff" stroke="#63b8ff" points="123.88,-72.82 113.36,-74.08 122.37,-79.66 123.88,-72.82"/>
</a>
</g>
</g>
<!-- Node4 -->
<g id="Node000004" class="node">
<title>Node4</title>
<g id="a_Node000004"><a xlink:href="types_8hpp.html" target="_top" xlink:title="Support library for basic types.">
<polygon fill="white" stroke="#666666" points="295.5,-74 181.5,-74 181.5,-55 295.5,-55 295.5,-74"/>
<text text-anchor="middle" x="238.5" y="-62" font-family="Helvetica,sans-Serif" font-size="10.00">undoCore/types.hpp</text>
</a>
</g>
</g>
<!-- Node1&#45;&gt;Node4 -->
<g id="edge3_Node000001_Node000004" class="edge">
<title>Node1&#45;&gt;Node4</title>
<g id="a_edge3_Node000001_Node000004"><a xlink:title=" ">
<path fill="none" stroke="#63b8ff" d="M302.29,-109.98C290.72,-101.92 273.12,-89.65 259.34,-80.03"/>
<polygon fill="#63b8ff" stroke="#63b8ff" points="261.14,-77.02 250.93,-74.17 257.13,-82.76 261.14,-77.02"/>
</a>
</g>
</g>
<!-- Node11 -->
<g id="Node000011" class="node">
<title>Node11</title>
<g id="a_Node000011"><a xlink:href="processImage_8hpp.html" target="_top" xlink:title="Process Image for IEC 61131&#45;3 PLC execution.">
<polygon fill="white" stroke="#666666" points="469,-74 314,-74 314,-55 469,-55 469,-74"/>
<text text-anchor="middle" x="391.5" y="-62" font-family="Helvetica,sans-Serif" font-size="10.00">undoCore/processImage.hpp</text>
</a>
</g>
</g>
<!-- Node1&#45;&gt;Node11 -->
<g id="edge11_Node000001_Node000011" class="edge">
<title>Node1&#45;&gt;Node11</title>
<g id="a_edge11_Node000001_Node000011"><a xlink:title=" ">
<path fill="none" stroke="#63b8ff" d="M326.87,-109.98C338.59,-101.92 356.42,-89.65 370.39,-80.03"/>
<polygon fill="#63b8ff" stroke="#63b8ff" points="372.65,-82.72 378.9,-74.17 368.68,-76.96 372.65,-82.72"/>
</a>
</g>
</g>
<!-- Node12 -->
<g id="Node000012" class="node">
<title>Node12</title>
<g id="a_Node000012"><a xlink:href="ioBus_8hpp.html" target="_top" xlink:title="Abstract interface for fieldbus masters in the undoRT ecosystem.">
<polygon fill="white" stroke="#666666" points="601.5,-74 487.5,-74 487.5,-55 601.5,-55 601.5,-74"/>
<text text-anchor="middle" x="544.5" y="-62" font-family="Helvetica,sans-Serif" font-size="10.00">undoCore/ioBus.hpp</text>
</a>
</g>
</g>
<!-- Node1&#45;&gt;Node12 -->
<g id="edge16_Node000001_Node000012" class="edge">
<title>Node1&#45;&gt;Node12</title>
<g id="a_edge16_Node000001_Node000012"><a xlink:title=" ">
<path fill="none" stroke="#63b8ff" d="M351.45,-109.98C391.07,-100.86 454.09,-86.33 497.27,-76.38"/>
<polygon fill="#63b8ff" stroke="#63b8ff" points="498.3,-79.74 507.26,-74.08 496.73,-72.92 498.3,-79.74"/>
</a>
</g>
</g>
<!-- Node3 -->
<g id="Node000003" class="node">
<title>Node3</title>
<g id="a_Node000003"><a xlink:title=" ">
<polygon fill="#e0e0e0" stroke="#999999" points="81.5,-19 37.5,-19 37.5,0 81.5,0 81.5,-19"/>
<text text-anchor="middle" x="59.5" y="-7" font-family="Helvetica,sans-Serif" font-size="10.00">string</text>
</a>
</g>
</g>
<!-- Node2&#45;&gt;Node3 -->
<g id="edge2_Node000002_Node000003" class="edge">
<title>Node2&#45;&gt;Node3</title>
<g id="a_edge2_Node000002_Node000003"><a xlink:title=" ">
<path fill="none" stroke="#63b8ff" d="M72.02,-54.75C70.04,-47.72 67.18,-37.62 64.69,-28.84"/>
<polygon fill="#63b8ff" stroke="#63b8ff" points="68.02,-27.76 61.93,-19.09 61.29,-29.66 68.02,-27.76"/>
</a>
</g>
</g>
<!-- Node4&#45;&gt;Node3 -->
<g id="edge6_Node000004_Node000003" class="edge">
<title>Node4&#45;&gt;Node3</title>
<g id="a_edge6_Node000004_Node000003"><a xlink:title=" ">
<path fill="none" stroke="#63b8ff" d="M209.74,-54.98C177.41,-45.41 125.05,-29.91 91.46,-19.96"/>
<polygon fill="#63b8ff" stroke="#63b8ff" points="92.27,-16.55 81.69,-17.07 90.28,-23.26 92.27,-16.55"/>
</a>
</g>
</g>
<!-- Node5 -->
<g id="Node000005" class="node">
<title>Node5</title>
<g id="a_Node000005"><a xlink:title=" ">
<polygon fill="#e0e0e0" stroke="#999999" points="544.5,-19 494.5,-19 494.5,0 544.5,0 544.5,-19"/>
<text text-anchor="middle" x="519.5" y="-7" font-family="Helvetica,sans-Serif" font-size="10.00">cstdint</text>
</a>
</g>
</g>
<!-- Node4&#45;&gt;Node5 -->
<g id="edge4_Node000004_Node000005" class="edge">
<title>Node4&#45;&gt;Node5</title>
<g id="a_edge4_Node000004_Node000005"><a xlink:title=" ">
<path fill="none" stroke="#63b8ff" d="M291.7,-54.97C339.61,-47.05 412.16,-34.47 484.14,-19.18"/>
<polygon fill="#63b8ff" stroke="#63b8ff" points="485.25,-22.52 494.29,-17 483.78,-15.67 485.25,-22.52"/>
</a>
</g>
</g>
<!-- Node6 -->
<g id="Node000006" class="node">
<title>Node6</title>
<g id="a_Node000006"><a xlink:title=" ">
<polygon fill="#e0e0e0" stroke="#999999" points="416.5,-19 366.5,-19 366.5,0 416.5,0 416.5,-19"/>
<text text-anchor="middle" x="391.5" y="-7" font-family="Helvetica,sans-Serif" font-size="10.00">cstring</text>
</a>
</g>
</g>
<!-- Node4&#45;&gt;Node6 -->
<g id="edge5_Node000004_Node000006" class="edge">
<title>Node4&#45;&gt;Node6</title>
<g id="a_edge5_Node000004_Node000006"><a xlink:title=" ">
<path fill="none" stroke="#63b8ff" d="M263.08,-54.98C288.55,-46.16 328.54,-32.31 357.13,-22.41"/>
<polygon fill="#63b8ff" stroke="#63b8ff" points="358.42,-25.66 366.73,-19.08 356.13,-19.05 358.42,-25.66"/>
</a>
</g>
</g>
<!-- Node7 -->
<g id="Node000007" class="node">
<title>Node7</title>
<g id="a_Node000007"><a xlink:title=" ">
<polygon fill="#e0e0e0" stroke="#999999" points="476.5,-19 434.5,-19 434.5,0 476.5,0 476.5,-19"/>
<text text-anchor="middle" x="455.5" y="-7" font-family="Helvetica,sans-Serif" font-size="10.00">array</text>
</a>
</g>
</g>
<!-- Node4&#45;&gt;Node7 -->
<g id="edge7_Node000004_Node000007" class="edge">
<title>Node4&#45;&gt;Node7</title>
<g id="a_edge7_Node000004_Node000007"><a xlink:title=" ">
<path fill="none" stroke="#63b8ff" d="M276.58,-54.94C312.38,-46.78 367.69,-33.88 424.38,-19.21"/>
<polygon fill="#63b8ff" stroke="#63b8ff" points="425.43,-22.55 434.23,-16.65 423.67,-15.78 425.43,-22.55"/>
</a>
</g>
</g>
<!-- Node8 -->
<g id="Node000008" class="node">
<title>Node8</title>
<g id="a_Node000008"><a xlink:title=" ">
<polygon fill="#e0e0e0" stroke="#999999" points="163.5,-19 99.5,-19 99.5,0 163.5,0 163.5,-19"/>
<text text-anchor="middle" x="131.5" y="-7" font-family="Helvetica,sans-Serif" font-size="10.00">algorithm</text>
</a>
</g>
</g>
<!-- Node4&#45;&gt;Node8 -->
<g id="edge8_Node000004_Node000008" class="edge">
<title>Node4&#45;&gt;Node8</title>
<g id="a_edge8_Node000004_Node000008"><a xlink:title=" ">
<path fill="none" stroke="#63b8ff" d="M221.31,-54.98C204.25,-46.54 177.87,-33.47 158.1,-23.68"/>
<polygon fill="#63b8ff" stroke="#63b8ff" points="159.52,-20.47 149,-19.17 156.41,-26.75 159.52,-20.47"/>
</a>
</g>
</g>
<!-- Node9 -->
<g id="Node000009" class="node">
<title>Node9</title>
<g id="a_Node000009"><a xlink:title=" ">
<polygon fill="#e0e0e0" stroke="#999999" points="265,-19 182,-19 182,0 265,0 265,-19"/>
<text text-anchor="middle" x="223.5" y="-7" font-family="Helvetica,sans-Serif" font-size="10.00">initializer_list</text>
</a>
</g>
</g>
<!-- Node4&#45;&gt;Node9 -->
<g id="edge9_Node000004_Node000009" class="edge">
<title>Node4&#45;&gt;Node9</title>
<g id="a_edge9_Node000004_Node000009"><a xlink:title=" ">
<path fill="none" stroke="#63b8ff" d="M236.02,-54.75C234.04,-47.72 231.18,-37.62 228.69,-28.84"/>
<polygon fill="#63b8ff" stroke="#63b8ff" points="232.02,-27.76 225.93,-19.09 225.29,-29.66 232.02,-27.76"/>
</a>
</g>
</g>
<!-- Node10 -->
<g id="Node000010" class="node">
<title>Node10</title>
<g id="a_Node000010"><a xlink:title=" ">
<polygon fill="#e0e0e0" stroke="#999999" points="348,-19 283,-19 283,0 348,0 348,-19"/>
<text text-anchor="middle" x="315.5" y="-7" font-family="Helvetica,sans-Serif" font-size="10.00">stdexcept</text>
</a>
</g>
</g>
<!-- Node4&#45;&gt;Node10 -->
<g id="edge10_Node000004_Node000010" class="edge">
<title>Node4&#45;&gt;Node10</title>
<g id="a_edge10_Node000004_Node000010"><a xlink:title=" ">
<path fill="none" stroke="#63b8ff" d="M250.87,-54.98C262.59,-46.92 280.42,-34.65 294.39,-25.03"/>
<polygon fill="#63b8ff" stroke="#63b8ff" points="296.65,-27.72 302.9,-19.17 292.68,-21.96 296.65,-27.72"/>
</a>
</g>
</g>
<!-- Node11&#45;&gt;Node5 -->
<g id="edge13_Node000011_Node000005" class="edge">
<title>Node11&#45;&gt;Node5</title>
<g id="a_edge13_Node000011_Node000005"><a xlink:title=" ">
<path fill="none" stroke="#63b8ff" d="M412.07,-54.98C432.93,-46.34 465.47,-32.87 489.27,-23.02"/>
<polygon fill="#63b8ff" stroke="#63b8ff" points="490.66,-26.23 498.56,-19.17 487.98,-19.76 490.66,-26.23"/>
</a>
</g>
</g>
<!-- Node11&#45;&gt;Node6 -->
<g id="edge14_Node000011_Node000006" class="edge">
<title>Node11&#45;&gt;Node6</title>
<g id="a_edge14_Node000011_Node000006"><a xlink:title=" ">
<path fill="none" stroke="#63b8ff" d="M391.5,-54.75C391.5,-47.8 391.5,-37.85 391.5,-29.13"/>
<polygon fill="#63b8ff" stroke="#63b8ff" points="395,-29.09 391.5,-19.09 388,-29.09 395,-29.09"/>
</a>
</g>
</g>
<!-- Node11&#45;&gt;Node7 -->
<g id="edge12_Node000011_Node000007" class="edge">
<title>Node11&#45;&gt;Node7</title>
<g id="a_edge12_Node000011_Node000007"><a xlink:title=" ">
<path fill="none" stroke="#63b8ff" d="M401.78,-54.98C411.34,-47.07 425.78,-35.11 437.28,-25.58"/>
<polygon fill="#63b8ff" stroke="#63b8ff" points="439.56,-28.24 445.03,-19.17 435.1,-22.85 439.56,-28.24"/>
</a>
</g>
</g>
<!-- Node11&#45;&gt;Node10 -->
<g id="edge15_Node000011_Node000010" class="edge">
<title>Node11&#45;&gt;Node10</title>
<g id="a_edge15_Node000011_Node000010"><a xlink:title=" ">
<path fill="none" stroke="#63b8ff" d="M379.29,-54.98C367.72,-46.92 350.12,-34.65 336.34,-25.03"/>
<polygon fill="#63b8ff" stroke="#63b8ff" points="338.14,-22.02 327.93,-19.17 334.13,-27.76 338.14,-22.02"/>
</a>
</g>
</g>
<!-- Node12&#45;&gt;Node5 -->
<g id="edge17_Node000012_Node000005" class="edge">
<title>Node12&#45;&gt;Node5</title>
<g id="a_edge17_Node000012_Node000005"><a xlink:title=" ">
<path fill="none" stroke="#63b8ff" d="M540.37,-54.75C536.99,-47.57 532.08,-37.18 527.88,-28.27"/>
<polygon fill="#63b8ff" stroke="#63b8ff" points="530.98,-26.64 523.55,-19.09 524.65,-29.63 530.98,-26.64"/>
</a>
</g>
</g>
</g>
</svg>
